<svg xmlns="http://www.w3.org/2000/svg" viewBox="0 0 147.95 159.61"><defs><style>.cls-1{fill:#f0c835;}.cls-2{fill:#468c96;}.cls-3{fill:#5096a0;}.cls-4{fill:#ff763d;}.cls-5{fill:#ff8047;}</style></defs><title>tower</title><g id="Layer_2" data-name="Layer 2"><g id="Layer_1-2" data-name="Layer 1"><path class="cls-1" d="M48.82,25.76a2.85,2.85,0,0,0-4.17.16,38.67,38.67,0,0,0-.3,50.24,2.86,2.86,0,0,0,4.2.18l1-1a2.85,2.85,0,0,0,.17-3.84,31.6,31.6,0,0,1,.24-40.95,2.84,2.84,0,0,0-.14-3.87Z"/><path class="cls-1" d="M103.3,25.92a2.85,2.85,0,0,0-4.17-.16l-1,1A2.85,2.85,0,0,0,98,30.59a31.62,31.62,0,0,1,.25,41,2.85,2.85,0,0,0,.16,3.84l1,1a2.86,2.86,0,0,0,4.2-.18,38.64,38.64,0,0,0-.3-50.24Z"/><path class="cls-1" d="M37.4,18.17a2.85,2.85,0,0,0-.1-3.93l-.94-1a2.87,2.87,0,0,0-2.09-.83,2.84,2.84,0,0,0-2,.94,56.22,56.22,0,0,0-.3,75.3,2.85,2.85,0,0,0,4.14.12l1-.95A2.85,2.85,0,0,0,37.14,84a49.21,49.21,0,0,1,.26-65.79Z"/><path class="cls-1" d="M115.73,13.4a2.88,2.88,0,0,0-2-.94,2.84,2.84,0,0,0-2.08.83l-.95,1a2.85,2.85,0,0,0-.1,3.93A49.23,49.23,0,0,1,110.82,84a2.84,2.84,0,0,0,.11,3.91l.95.95A2.85,2.85,0,0,0,116,88.7a56.23,56.23,0,0,0-.29-75.3Z"/><path class="cls-1" d="M24.91,5.74a2.85,2.85,0,0,0-.07-4L23.89.84A2.85,2.85,0,0,0,21.82,0a2.8,2.8,0,0,0-2,.91,73.82,73.82,0,0,0-.3,100.28,2.89,2.89,0,0,0,2,.92,2.84,2.84,0,0,0,2.08-.84l.95-.94a2.84,2.84,0,0,0,.08-3.94,66.81,66.81,0,0,1,.27-90.65Z"/><path class="cls-1" d="M128.16.91a2.8,2.8,0,0,0-2-.91,2.88,2.88,0,0,0-2.07.83l-1,1a2.85,2.85,0,0,0-.08,4,66.8,66.8,0,0,1,.28,90.65,2.84,2.84,0,0,0,.08,3.94l1,1a2.85,2.85,0,0,0,4.12-.08A73.84,73.84,0,0,0,128.16.91Z"/><path class="cls-2" d="M115.74,154.51,77.55,49.58s0-.09-.07-.14a2.53,2.53,0,0,0-.18-.37,2.48,2.48,0,0,0-.18-.31,2.77,2.77,0,0,0-.22-.29c-.08-.09-.16-.19-.25-.28L76.39,48a3.65,3.65,0,0,0-.31-.24l-.28-.16a3,3,0,0,0-.4-.2l-.13,0-.15-.05-.43-.11-.33,0h-.77l-.33,0-.43.11-.15.05-.13,0a3.73,3.73,0,0,0-.4.2l-.27.16a2.67,2.67,0,0,0-.32.24l-.26.23c-.09.09-.17.19-.25.28l-.22.29a2.48,2.48,0,0,0-.18.31,2.53,2.53,0,0,0-.18.37c0,.05,0,.09-.07.14L32.21,154.51a3.8,3.8,0,0,0,2.27,4.87,3.72,3.72,0,0,0,1.3.23,3.83,3.83,0,0,0,3.58-2.5l4.94-13.59h59.35l4.95,13.59a3.8,3.8,0,0,0,3.57,2.5,3.72,3.72,0,0,0,1.3-.23A3.8,3.8,0,0,0,115.74,154.51ZM74,62l1.27,3.49-3.77,3.37Zm3.37,9.26L79.44,77H70.91ZM66.44,82.7h8.74L63.6,90.49Zm15.83,2.09,3.79,10.39H66.84Zm-22.45,16.1H77.77L56.08,111.16Zm28.75,1.19,4.49,12.36H62.48ZM52.81,120.14H83.68L47.39,135Zm2.82,17.67,40-16.4,6,16.4Z"/><path class="cls-3" d="M75.25,65.48,74,66.62v7.64l3.37-3L79.44,77H74V82.7h1.2l-1.2.8v6.88l8.29-5.59,3.79,10.39H74v5.71h3.79L74,102.68V109l14.59-6.92,4.49,12.36H74v5.7h9.7l-9.7,4v6.17l21.62-8.88,6,16.4H74v5.71h29.67l4.95,13.59a3.8,3.8,0,0,0,3.57,2.5,3.72,3.72,0,0,0,1.3-.23,3.8,3.8,0,0,0,2.27-4.87L77.55,49.58s0-.09-.07-.14a2.53,2.53,0,0,0-.18-.37,2.48,2.48,0,0,0-.18-.31,2.77,2.77,0,0,0-.22-.29c-.08-.09-.16-.19-.25-.28L76.39,48a3.65,3.65,0,0,0-.31-.24l-.28-.16a3,3,0,0,0-.4-.2l-.13,0-.15-.05-.43-.11-.33,0H74V62Z"/><path class="cls-4" d="M74,37.17a14,14,0,1,0,14,14A14,14,0,0,0,74,37.17Z"/><path class="cls-5" d="M88,51.21a14,14,0,0,0-14-14V65.25A14,14,0,0,0,88,51.21Z"/></g></g></svg>